<?xml version="1.0" encoding="utf-8"?>
<!-- Generator: Adobe Illustrator 16.0.4, SVG Export Plug-In . SVG Version: 6.00 Build 0)  -->
<!DOCTYPE svg PUBLIC "-//W3C//DTD SVG 1.1//EN" "http://www.w3.org/Graphics/SVG/1.1/DTD/svg11.dtd">
<svg version="1.1" id="Layer_1" xmlns="http://www.w3.org/2000/svg" xmlns:xlink="http://www.w3.org/1999/xlink" x="0px" y="0px"
	 width="400.647px" height="84.337px" viewBox="0 0 400.647 84.337" enable-background="new 0 0 400.647 84.337"
	 xml:space="preserve">
<g>
	<g>
		<path fill="#F1615D" d="M48.645,53.188c8.501-4.327,7.632-5.978,19.723-16.095c9.344-13.523-6.912-17.464-20.52-13.081
			C33.343,28.685,16.673,43.086,0,33.726C10.971,53.792,37.865,60.362,48.645,53.188z"/>
		<path fill="#454242" d="M79.897,53.545c0.747-0.135,1.459-0.492,2.024-1.08l12.973-13.468L82.964,27.357
			c-2.976-2.908-7.07-5.179-13.076-5.179s-10.101,2.271-13.076,5.179L44.881,38.998l12.973,13.468
			c0.566,0.588,1.278,0.945,2.024,1.08l-5.612,24.584c-0.624,2.734,1.085,5.456,3.82,6.08c0.38,0.086,0.76,0.128,1.134,0.128
			c2.316,0,4.408-1.595,4.945-3.948l5.723-25.066l5.722,25.066c0.538,2.354,2.629,3.948,4.945,3.948
			c0.375,0,0.755-0.042,1.135-0.128c2.733-0.624,4.444-3.346,3.819-6.08L79.897,53.545z M60.062,43.981l-4.643-4.819l4.643-4.53
			V43.981z M79.713,34.631l4.642,4.53l-4.642,4.819V34.631z M79.247,9.355C79.247,4.163,75.06,0,69.886,0
			c-5.171,0-9.358,4.163-9.358,9.355c0,5.19,4.187,9.358,9.358,9.358C75.06,18.714,79.247,14.546,79.247,9.355z"/>
	</g>
	<g>
		<path fill="#454242" d="M134.755,65.097c5.52,0,10.032-2.184,13.536-6.552l7.2,7.416c-5.713,6.433-12.444,9.648-20.196,9.648
			s-14.137-2.449-19.151-7.345c-5.017-4.896-7.524-11.075-7.524-18.54c0-7.463,2.556-13.691,7.668-18.684
			c5.112-4.991,11.363-7.488,18.756-7.488c8.256,0,15.167,3.145,20.736,9.432l-6.984,7.92c-3.553-4.416-7.968-6.624-13.248-6.624
			c-4.224,0-7.837,1.38-10.836,4.14c-3,2.761-4.5,6.479-4.5,11.159c0,4.681,1.415,8.438,4.248,11.269
			C127.291,63.682,130.724,65.097,134.755,65.097z"/>
		<path fill="#454242" d="M194.01,75.034h-10.151v-4.681c-2.784,3.505-6.229,5.257-10.332,5.257c-4.104,0-7.549-1.188-10.332-3.564
			c-2.784-2.376-4.176-5.545-4.176-9.504c0-3.961,1.439-6.924,4.319-8.893c2.88-1.967,6.815-2.951,11.809-2.951h8.063v-0.217
			c0-4.127-2.185-6.191-6.552-6.191c-1.872,0-3.853,0.372-5.94,1.115c-2.088,0.745-3.852,1.669-5.292,2.772l-4.823-6.984
			c5.087-3.696,10.896-5.544,17.424-5.544c4.703,0,8.543,1.177,11.52,3.528c2.976,2.353,4.464,6.073,4.464,11.16V75.034z
			 M183.138,60.274v-1.873h-6.768c-4.32,0-6.479,1.345-6.479,4.032c0,1.394,0.515,2.46,1.548,3.204
			c1.031,0.744,2.507,1.116,4.428,1.116c1.919,0,3.611-0.587,5.076-1.765C182.406,63.813,183.138,62.243,183.138,60.274z"/>
		<path fill="#454242" d="M213.234,75.034h-10.8V21.609h10.8V75.034z"/>
		<path fill="#454242" d="M232.817,75.034h-10.8V21.609h10.8V75.034z"/>
		<path fill="#F1615D" d="M273.929,24.705h11.231v50.329h-11.231V55.233h-20.017v19.801h-11.231V24.705h11.231v21.024h20.017V24.705
			z"/>
		<path fill="#F1615D" d="M327.136,69.417c-4.368,4.129-9.493,6.193-15.372,6.193c-5.88,0-10.74-1.812-14.58-5.437
			c-3.841-3.624-5.76-8.483-5.76-14.58c0-6.095,1.955-10.944,5.868-14.544c3.911-3.6,8.531-5.4,13.859-5.4s9.852,1.608,13.572,4.824
			c3.72,3.217,5.58,7.632,5.58,13.248v5.76H302.08c0.335,2.113,1.439,3.841,3.312,5.184c1.872,1.346,3.983,2.017,6.336,2.017
			c3.791,0,6.912-1.271,9.36-3.815L327.136,69.417z M316.768,46.45c-1.488-1.248-3.301-1.873-5.436-1.873
			c-2.137,0-4.093,0.648-5.868,1.944c-1.776,1.296-2.809,3.049-3.096,5.257h16.991C319.119,49.473,318.255,47.698,316.768,46.45z"/>
		<path fill="#F1615D" d="M355.576,45.801c-3.217,0-5.616,1.141-7.2,3.42c-1.584,2.28-2.376,5.292-2.376,9.036v16.776h-10.8V36.297
			H346v5.112c1.392-1.584,3.132-2.927,5.22-4.032c2.088-1.104,4.212-1.68,6.372-1.728l0.072,10.152H355.576z"/>
		<path fill="#F1615D" d="M400.647,55.665c0,5.617-1.943,10.346-5.832,14.185c-3.888,3.841-8.772,5.761-14.651,5.761
			c-5.881,0-10.765-1.92-14.652-5.761c-3.888-3.839-5.832-8.567-5.832-14.185c0-5.615,1.944-10.355,5.832-14.219
			c3.888-3.863,8.771-5.796,14.652-5.796c5.879,0,10.764,1.933,14.651,5.796C398.704,45.309,400.647,50.049,400.647,55.665z
			 M370.552,55.665c0,3.168,0.9,5.75,2.7,7.74c1.8,1.992,4.104,2.988,6.912,2.988c2.808,0,5.111-0.996,6.912-2.988
			c1.8-1.99,2.699-4.572,2.699-7.74s-0.899-5.76-2.699-7.775c-1.801-2.016-4.104-3.023-6.912-3.023
			c-2.809,0-5.112,1.008-6.912,3.023S370.552,52.497,370.552,55.665z"/>
	</g>
</g>
</svg>
